<svg data-v-423bf9ae="" xmlns="http://www.w3.org/2000/svg" viewBox="0 0 456 90" class="iconLeft"><!----><!----><!----><g data-v-423bf9ae="" id="73aa42d6-9436-4dcd-9d71-02a6e19a6d9d" fill="#000000" transform="matrix(4.702194624460447,0,0,4.702194624460447,104.49843019277043,-1.2695940568447952)"><path d="M4.43 3.82L1.17 3.82L1.17 13.15L2.65 13.15L2.65 9.45L4.43 9.44C5.92 9.42 7.44 8.44 7.44 6.64C7.44 4.81 5.92 3.82 4.43 3.82ZM3.88 8.30L2.65 8.27L2.65 4.99L3.88 4.97C5.19 4.96 5.89 5.59 5.89 6.64C5.89 7.70 5.19 8.31 3.88 8.30ZM15.05 9.70C15.05 7.73 13.72 6.36 11.80 6.36C9.81 6.36 8.39 7.89 8.39 9.84C8.39 11.80 9.80 13.31 11.97 13.31C13.11 13.31 14.07 12.92 14.67 12.25L13.69 11.46C13.27 11.94 12.70 12.19 11.96 12.19C10.72 12.19 9.97 11.33 9.87 10.15L15.05 10.15ZM11.80 7.50C12.83 7.50 13.50 8.12 13.65 9.17L9.93 9.17C10.14 8.17 10.82 7.50 11.80 7.50ZM19.60 6.53L18.19 6.53L18.19 4.64L16.79 4.64L16.79 6.53L15.91 6.53L15.91 7.67L16.79 7.67L16.79 13.15L18.20 13.15L18.19 7.67L19.60 7.67ZM23.76 6.36C22.97 6.36 22.44 6.74 22.06 7.41L21.89 6.53L20.66 6.53L20.66 13.15L22.08 13.15L22.08 9.70C22.08 8.62 22.65 7.66 23.68 7.66C23.92 7.66 24.14 7.70 24.32 7.79L24.75 6.58C24.57 6.47 24.19 6.36 23.76 6.36ZM30.86 6.53L30.67 7.45C30.16 6.78 29.39 6.36 28.36 6.36C26.64 6.36 25.27 7.69 25.27 9.84C25.27 12.00 26.64 13.31 28.36 13.31C29.37 13.31 30.14 12.89 30.65 12.22L30.86 13.15L32.02 13.15L32.02 6.53ZM28.70 12.12C27.50 12.12 26.72 11.14 26.72 9.84C26.72 8.55 27.50 7.55 28.70 7.55C29.94 7.55 30.74 8.55 30.74 9.84C30.74 11.14 29.94 12.12 28.70 12.12ZM36.84 3.82L34.07 3.82L34.07 13.15L36.84 13.15C40.09 13.15 41.87 11.10 41.87 8.47C41.87 5.86 40.09 3.82 36.84 3.82ZM36.60 11.94L35.55 11.94L35.55 5.03L36.60 5.03C39.11 5.03 40.32 6.39 40.32 8.47C40.32 10.57 39.11 11.94 36.60 11.94ZM49.66 9.70C49.66 7.73 48.33 6.36 46.40 6.36C44.42 6.36 42.99 7.89 42.99 9.84C42.99 11.80 44.41 13.31 46.58 13.31C47.72 13.31 48.68 12.92 49.28 12.25L48.30 11.46C47.88 11.94 47.31 12.19 46.56 12.19C45.33 12.19 44.58 11.33 44.48 10.15L49.66 10.15ZM46.40 7.50C47.44 7.50 48.11 8.12 48.26 9.17L44.54 9.17C44.74 8.17 45.43 7.50 46.40 7.50ZM50.41 12.22C50.90 12.88 51.90 13.34 53.14 13.34C54.78 13.34 55.78 12.54 55.78 11.35C55.78 9.00 52.28 9.79 52.28 8.36C52.28 7.86 52.66 7.53 53.43 7.51C53.91 7.50 54.47 7.73 54.86 8.11L55.64 7.22C55.20 6.75 54.35 6.36 53.38 6.36C51.80 6.36 50.84 7.19 50.84 8.41C50.84 10.82 54.28 10.09 54.28 11.38C54.28 11.87 53.87 12.21 53.05 12.21C52.40 12.21 51.80 11.97 51.32 11.35ZM57.97 5.26C58.48 5.26 58.89 4.86 58.89 4.36C58.89 3.86 58.48 3.46 57.97 3.46C57.47 3.46 57.06 3.86 57.06 4.36C57.06 4.86 57.47 5.26 57.97 5.26ZM57.30 13.15L58.68 13.15L58.68 6.53L57.30 6.53ZM65.83 6.53L65.64 7.47C65.13 6.80 64.36 6.36 63.34 6.36C61.61 6.36 60.24 7.67 60.24 9.81C60.24 11.96 61.61 13.27 63.34 13.27C64.30 13.27 65.06 12.89 65.57 12.26L65.57 12.43C65.57 14.13 65.06 15.02 63.66 15.02C63.29 15.02 62.90 14.95 62.55 14.79L62.23 15.98C62.66 16.13 63.20 16.22 63.73 16.22C65.89 16.22 66.98 14.95 66.98 12.54L66.98 6.53ZM63.67 12.07C62.48 12.07 61.69 11.11 61.69 9.81C61.69 8.53 62.48 7.54 63.67 7.54C64.91 7.54 65.71 8.53 65.71 9.81C65.71 11.11 64.91 12.07 63.67 12.07ZM72.19 6.36C71.25 6.36 70.55 6.75 70.15 7.32L69.97 6.53L68.73 6.53L68.73 13.15L70.15 13.15L70.15 9.11C70.26 7.95 71.05 7.57 71.79 7.57C72.81 7.57 73.25 8.30 73.25 9.38L73.25 13.15L74.67 13.15L74.67 9.06C74.67 7 73.34 6.36 72.19 6.36Z"></path></g><!----><g data-v-423bf9ae="" id="21f7b445-c4be-4565-9cfe-74f06abbc433" transform="matrix(2.8125,0,0,2.8125,0,0)" stroke="none" fill="#754220"><path d="M29.625 1l-3.099 3.172H4.054v23.657h22.472L29.625 31H1V1h28.625M32 0H0v32h32l-5.054-5.172H5.054V5.172h21.893L32 0z"></path><path d="M21.038 10.962v10.076H10.962V10.962h10.076m1-1H9.962v12.076h12.076V9.962z"></path></g><!----></svg>